<svg xmlns="http://www.w3.org/2000/svg" xmlns:xlink="http://www.w3.org/1999/xlink" version="1.1" id="Lager_1" x="0px" y="0px" viewBox="0 78 1192.2 200" style="background: #ffffff;" xml:space="preserve">
<path d="M296.1,137.1h45.4v11.1h-33.6v19.4H335v11.2h-27.1v33.3h-11.8V137.1z"/>
    <path d="M394,212h-11.1v-9.2c-3.6,6.3-10.2,10.1-17.4,10.1c-9.5,0-15.8-5.9-15.8-16.1v-38.7h11.1v35.1c0,6.5,2.8,9.8,8.3,9.8  c3.8,0,7-2,9.6-6.2c2.7-4.2,4.2-9.9,4.2-16.9v-21.8H394V212z"/>
    <path d="M421.1,212H410v-53.9h11.1v8.9c3.2-5.9,9.3-9.6,15.9-9.8c2.3,0,4.7,0.4,6.8,1.3l-1.9,10.2c-1.9-1.1-4.1-1.7-6.3-1.6  c-4,0-7.4,2.1-10.3,6.5s-4.3,10.4-4.3,18.4L421.1,212z"/>
    <path d="M453.4,136.3h11.1v31c4.6-6.7,10.7-10.1,18.2-10.1c10.2,0,15.9,5.6,15.9,16.8v38h-11.1V177c0-7.7-2.9-9.9-8.5-9.9  c-3.4,0-6.7,2-9.9,6.1c-3.1,4.1-4.7,9.4-4.7,16V212h-11.1V136.3z"/>
    <path d="M534.4,178.8h9.3v-2.4c0-6.4-4.4-9.4-10.5-9.4c-4.9,0-8.2,2.4-10.1,7.2l-10.2-2.1c2.2-9.1,10.1-14.9,20.3-14.9  c14.3,0,21.5,7.1,21.5,21.3V212h-9.4l-1.1-7.1c-3.7,5.2-9.3,7.9-16.7,7.9c-9.5,0-16.6-5.7-16.6-16.4  C511.1,185.5,520.4,178.8,534.4,178.8z M529.5,203.1c3.6,0.1,7.1-1.2,9.8-3.5c2.9-2.5,4.3-5.8,4.3-10.2v-1.2h-9.7  c-6.8,0-11.1,3.2-11.1,8.3C522.8,200.4,525.2,203.1,529.5,203.1z"/>
    <path d="M563.3,168v-9.8h9v-14.9l11.1-7v21.8h14v9.8h-14v26.3c0,5.9,2.4,8.8,7.2,8.8c1.8,0,3.6-0.5,5.1-1.5l2.9,9.4  c-2.7,1.3-5.7,2-8.7,2c-10.7,0-17.7-6.5-17.7-19.3V168H563.3z"/>
    <path d="M673.7,177.6l21.6,34.5h-13.9l-21.1-33.6h-8.7v33.6h-11.8v-75h26.2c14,0,22.1,7.8,22.1,20.6  C688.3,168.1,683,175.1,673.7,177.6z M666.4,167.4c6,0,9.8-3.1,9.8-9.5s-3.8-9.6-9.8-9.6h-14.8v19.1L666.4,167.4z"/>
    <path d="M700.8,185.1c0-7.8,2.4-14.5,7.2-19.8c4.8-5.3,11.3-8,19.4-8s14.4,2.7,19.3,8c9.7,11.4,9.7,28.2,0,39.6  c-4.8,5.4-11.2,8.1-19.3,8.1c-8,0-14.6-2.7-19.4-8C703.1,199.5,700.5,192.4,700.8,185.1z M712.5,185.1c-0.1,4.5,1.2,9,3.8,12.7  c2.5,3.5,6.6,5.4,10.9,5.2c4.3,0.2,8.3-1.8,10.8-5.2c2.7-3.7,4.1-8.2,4-12.7c0.1-4.5-1.3-9-4-12.6c-2.5-3.5-6.5-5.6-10.8-5.4  c-4.3-0.1-8.4,1.9-10.9,5.4C713.7,176.1,712.4,180.6,712.5,185.1z"/>
    <path d="M792.4,213c-6.5,0-12.6-3.5-14.7-7.1v6.2h-11.1v-75.8h11.1v27.8c1.6-2.1,3.8-3.7,6.2-4.7c2.5-1.3,5.4-2.1,8.2-2.1  c15.8,0,24.3,10.7,24.3,27.8C816.4,202.6,808.1,213,792.4,213z M804.7,185.1c0-5.5-1.3-9.9-3.8-13.1c-4.2-5.5-12-6.6-17.5-2.4  c-0.9,0.7-1.7,1.5-2.4,2.4c-2.6,3.2-3.8,7.6-3.8,13.1s1.3,9.8,3.8,13.2c4.3,5.5,12.3,6.4,17.8,2.1c0.8-0.6,1.5-1.3,2.1-2.1  C803.4,194.9,804.7,190.5,804.7,185.1L804.7,185.1z"/>
    <path d="M826.5,185.1c0-7.8,2.4-14.5,7.2-19.8c4.8-5.3,11.3-8,19.4-8s14.5,2.7,19.3,8c9.7,11.4,9.7,28.2,0,39.6  c-4.8,5.4-11.2,8.1-19.3,8.1c-8,0-14.5-2.7-19.4-8C828.8,199.5,826.3,192.4,826.5,185.1z M838.3,185.1c-0.1,4.5,1.2,9,3.8,12.7  c2.5,3.4,6.6,5.4,10.9,5.2c4.3,0.2,8.3-1.8,10.8-5.2c2.7-3.7,4.1-8.2,4-12.7c0.1-4.5-1.3-9-4-12.6c-2.5-3.5-6.5-5.5-10.8-5.4  c-4.3-0.1-8.4,1.9-10.9,5.4C839.5,176.1,838.1,180.6,838.3,185.1z"/>
    <path d="M884.6,168v-9.8h9v-14.9l11.1-7v21.8h14v9.8h-14v26.3c0,5.9,2.4,8.8,7.2,8.8c1.8,0,3.6-0.5,5.1-1.5l2.9,9.4  c-2.7,1.3-5.7,2-8.7,2c-10.7,0-17.7-6.5-17.7-19.3V168H884.6z"/>
    <path d="M931.3,137.5c2.9-3,7.7-3.1,10.7-0.2c0.1,0.1,0.2,0.1,0.2,0.2c3,3,3,7.9,0,10.9c-3.1,2.9-7.9,2.9-11,0  C928.3,145.3,928.4,140.5,931.3,137.5z M931.2,158.1h11.1V212h-11.1V158.1z"/>
    <path d="M1003,198c-4.4,9.9-12.1,14.9-23.3,14.9c-8.1,0-14.4-2.7-18.8-7.9c-4.4-5.2-6.5-12-6.5-19.9s2.1-14.6,6.5-19.8  s10.7-8,18.8-8c11.2,0,18.9,4.9,23.3,14.9l-9.9,4.3c-2.8-6.2-7.3-9.3-13.4-9.3c-9.1,0-13.6,7.2-13.6,18s4.5,18,13.6,18  c6.1,0,10.6-3.1,13.4-9.3L1003,198z"/>
    <path d="M1048.1,165.9l-7.1,6.2c-2.1-3.1-5.7-4.9-9.4-4.9c-2.8-0.2-5.2,2-5.3,4.7c0,0.2,0,0.4,0,0.6c0,1.2,0.5,2.4,1.4,3.3  c1.8,1.8,3.6,2.7,8.2,4.4c3,0.9,5.8,2.2,8.3,4c4.3,2.6,6.3,5.8,6.7,11.7c0.1,4.6-1.8,9-5.1,12.2c-3.4,3.3-7.9,4.9-13.6,4.9  c-10.3,0-17.5-6.6-20.9-14.4l9.4-5.1c2.9,6.5,6.8,9.7,11.9,9.7c4.8,0,7.3-2.4,7.3-7.1c0-1.8-0.7-3.1-2.8-4.3  c-0.9-0.6-1.8-1.1-2.8-1.5c-1.6-0.8-5.6-2.1-7.3-2.9c-7.7-3.2-11.5-8.1-11.6-14.8c-0.1-4.1,1.7-8,4.7-10.8c3.2-3,7.5-4.7,11.9-4.5  C1038.5,157.3,1044.5,160.5,1048.1,165.9z"/>
    <circle cx="180" cy="148.2" r="38.8"/>
    <polygon points="217.2,250.6 217.2,226.3 142.8,196.5 142.8,220.8 "/>
</svg>